<svg xmlns="http://www.w3.org/2000/svg" xmlns:xlink="http://www.w3.org/1999/xlink" x="0" y="0" enable-background="new 0 0 30 30" version="1.1" viewBox="0 0 30 30" xml:space="preserve"><g id="Row_1_1_"><g id="minimize"><g><path fill="#FFF" fill-rule="evenodd" d="M13,5c-0.6,0-1,0.4-1,1v4.6L5.7,4.3c-0.4-0.4-1-0.4-1.4,0 c-0.4,0.4-0.4,1,0,1.4l6.3,6.3H6c-0.6,0-1,0.4-1,1c0,0.6,0.4,1,1,1h7c0.6,0,1-0.5,1-1V6C14,5.4,13.5,5,13,5z M25.7,24.3L19.4,18 H24c0.6,0,1-0.4,1-1c0-0.6-0.4-1-1-1h-7c-0.6,0-1,0.5-1,1v7c0,0.6,0.4,1,1,1s1-0.4,1-1v-4.6l6.3,6.3c0.4,0.4,1,0.4,1.4,0 C26.1,25.3,26.1,24.7,25.7,24.3z" clip-rule="evenodd"/></g></g></g></svg>